solid Exported from Blender-2.75 (sub 0)
facet normal 0.102381 -0.315090 -0.943523
outer loop
vertex 0.000000 0.000000 -9.999999
vertex 4.253226 -3.090113 -8.506540
vertex -1.624555 -4.999952 -8.506543
endloop
endfacet
facet normal 0.700224 -0.268031 -0.661699
outer loop
vertex 7.236073 -5.257253 -4.472195
vertex 4.253226 -3.090113 -8.506540
vertex 8.506477 0.000000 -5.257358
endloop
endfacet
facet normal -0.268035 -0.194736 -0.943523
outer loop
vertex 0.000000 0.000000 -9.999999
vertex -1.624555 -4.999952 -8.506543
vertex -5.257297 0.000000 -8.506516
endloop
endfacet
facet normal -0.268035 0.194736 -0.943523
outer loop
vertex 0.000000 0.000000 -9.999999
vertex -5.257297 0.000000 -8.506516
vertex -1.624555 4.999952 -8.506543
endloop
endfacet
facet normal 0.102381 0.315090 -0.943523
outer loop
vertex 0.000000 0.000000 -9.999999
vertex -1.624555 4.999952 -8.506543
vertex 4.253226 3.090113 -8.506540
endloop
endfacet
facet normal 0.904989 -0.268031 -0.330384
outer loop
vertex 7.236073 -5.257253 -4.472195
vertex 8.506477 0.000000 -5.257358
vertex 9.510577 -3.090126 0.000000
endloop
endfacet
facet normal 0.024747 -0.943521 -0.330387
outer loop
vertex -2.763880 -8.506493 -4.472198
vertex 2.628688 -8.090115 -5.257376
vertex 0.000000 -9.999999 0.000000
endloop
endfacet
facet normal -0.889697 -0.315095 -0.330385
outer loop
vertex -8.944261 0.000000 -4.472156
vertex -6.881892 -4.999969 -5.257361
vertex -9.510577 -3.090126 0.000000
endloop
endfacet
facet normal -0.574602 0.748783 -0.330387
outer loop
vertex -2.763880 8.506493 -4.472198
vertex -6.881892 4.999969 -5.257361
vertex -5.877855 8.090166 0.000000
endloop
endfacet
facet normal 0.534576 0.777865 -0.330386
outer loop
vertex 7.236073 5.257253 -4.472195
vertex 2.628688 8.090115 -5.257376
vertex 5.877855 8.090166 0.000000
endloop
endfacet
facet normal 0.802609 -0.583126 -0.125627
outer loop
vertex 7.236073 -5.257253 -4.472195
vertex 9.510577 -3.090126 0.000000
vertex 5.877855 -8.090166 0.000000
endloop
endfacet
facet normal -0.306569 -0.943521 -0.125628
outer loop
vertex -2.763880 -8.506493 -4.472198
vertex 0.000000 -9.999999 0.000000
vertex -5.877855 -8.090166 0.000000
endloop
endfacet
facet normal -0.992077 0.000000 -0.125628
outer loop
vertex -8.944261 0.000000 -4.472156
vertex -9.510577 -3.090126 0.000000
vertex -9.510577 3.090126 0.000000
endloop
endfacet
facet normal -0.306569 0.943521 -0.125628
outer loop
vertex -2.763880 8.506493 -4.472198
vertex -5.877855 8.090166 0.000000
vertex 0.000000 9.999999 0.000000
endloop
endfacet
facet normal 0.802609 0.583126 -0.125627
outer loop
vertex 7.236073 5.257253 -4.472195
vertex 5.877855 8.090166 0.000000
vertex 9.510577 3.090126 0.000000
endloop
endfacet
facet normal 0.408946 -0.628425 0.661699
outer loop
vertex 2.763880 -8.506493 4.472198
vertex 6.881892 -4.999969 5.257361
vertex 1.624555 -4.999952 8.506543
endloop
endfacet
facet normal -0.471299 -0.583122 0.661699
outer loop
vertex -7.236073 -5.257253 4.472195
vertex -2.628688 -8.090115 5.257376
vertex -4.253226 -3.090113 8.506540
endloop
endfacet
facet normal -0.700224 0.268031 0.661699
outer loop
vertex -7.236073 5.257253 4.472195
vertex -8.506477 0.000000 5.257358
vertex -4.253226 3.090113 8.506540
endloop
endfacet
facet normal 0.038530 0.748779 0.661699
outer loop
vertex 2.763880 8.506493 4.472198
vertex -2.628688 8.090115 5.257376
vertex 1.624555 4.999952 8.506543
endloop
endfacet
facet normal 0.724042 0.194736 0.661695
outer loop
vertex 8.944261 0.000000 4.472156
vertex 6.881892 4.999969 5.257361
vertex 5.257297 0.000000 8.506516
endloop
endfacet
facet normal 0.268035 0.194736 0.943523
outer loop
vertex 5.257297 0.000000 8.506516
vertex 1.624555 4.999952 8.506543
vertex 0.000000 0.000000 9.999999
endloop
endfacet
facet normal 0.491119 0.356821 0.794657
outer loop
vertex 5.257297 0.000000 8.506516
vertex 6.881892 4.999969 5.257361
vertex 1.624555 4.999952 8.506543
endloop
endfacet
facet normal 0.408946 0.628425 0.661699
outer loop
vertex 6.881892 4.999969 5.257361
vertex 2.763880 8.506493 4.472198
vertex 1.624555 4.999952 8.506543
endloop
endfacet
facet normal -0.102381 0.315090 0.943523
outer loop
vertex 1.624555 4.999952 8.506543
vertex -4.253226 3.090113 8.506540
vertex 0.000000 0.000000 9.999999
endloop
endfacet
facet normal -0.187595 0.577345 0.794658
outer loop
vertex 1.624555 4.999952 8.506543
vertex -2.628688 8.090115 5.257376
vertex -4.253226 3.090113 8.506540
endloop
endfacet
facet normal -0.471299 0.583122 0.661699
outer loop
vertex -2.628688 8.090115 5.257376
vertex -7.236073 5.257253 4.472195
vertex -4.253226 3.090113 8.506540
endloop
endfacet
facet normal -0.331304 0.000000 0.943524
outer loop
vertex -4.253226 3.090113 8.506540
vertex -4.253226 -3.090113 8.506540
vertex 0.000000 0.000000 9.999999
endloop
endfacet
facet normal -0.607060 0.000000 0.794656
outer loop
vertex -4.253226 3.090113 8.506540
vertex -8.506477 0.000000 5.257358
vertex -4.253226 -3.090113 8.506540
endloop
endfacet
facet normal -0.700224 -0.268031 0.661699
outer loop
vertex -8.506477 0.000000 5.257358
vertex -7.236073 -5.257253 4.472195
vertex -4.253226 -3.090113 8.506540
endloop
endfacet
facet normal -0.102381 -0.315090 0.943523
outer loop
vertex -4.253226 -3.090113 8.506540
vertex 1.624555 -4.999952 8.506543
vertex 0.000000 0.000000 9.999999
endloop
endfacet
facet normal -0.187595 -0.577345 0.794657
outer loop
vertex -4.253226 -3.090113 8.506540
vertex -2.628688 -8.090115 5.257376
vertex 1.624555 -4.999952 8.506543
endloop
endfacet
facet normal 0.038530 -0.748779 0.661699
outer loop
vertex -2.628688 -8.090115 5.257376
vertex 2.763880 -8.506493 4.472198
vertex 1.624555 -4.999952 8.506543
endloop
endfacet
facet normal 0.268035 -0.194736 0.943523
outer loop
vertex 1.624555 -4.999952 8.506543
vertex 5.257297 0.000000 8.506516
vertex 0.000000 0.000000 9.999999
endloop
endfacet
facet normal 0.491119 -0.356821 0.794657
outer loop
vertex 1.624555 -4.999952 8.506543
vertex 6.881892 -4.999969 5.257361
vertex 5.257297 0.000000 8.506516
endloop
endfacet
facet normal 0.724042 -0.194736 0.661695
outer loop
vertex 6.881892 -4.999969 5.257361
vertex 8.944261 0.000000 4.472156
vertex 5.257297 0.000000 8.506516
endloop
endfacet
facet normal 0.889697 0.315095 0.330385
outer loop
vertex 9.510577 3.090126 0.000000
vertex 6.881892 4.999969 5.257361
vertex 8.944261 0.000000 4.472156
endloop
endfacet
facet normal 0.794655 0.577348 0.187595
outer loop
vertex 9.510577 3.090126 0.000000
vertex 5.877855 8.090166 0.000000
vertex 6.881892 4.999969 5.257361
endloop
endfacet
facet normal 0.574602 0.748783 0.330387
outer loop
vertex 5.877855 8.090166 0.000000
vertex 2.763880 8.506493 4.472198
vertex 6.881892 4.999969 5.257361
endloop
endfacet
facet normal -0.024747 0.943521 0.330386
outer loop
vertex 0.000000 9.999999 0.000000
vertex -2.628688 8.090115 5.257376
vertex 2.763880 8.506493 4.472198
endloop
endfacet
facet normal -0.303531 0.934171 0.187597
outer loop
vertex 0.000000 9.999999 0.000000
vertex -5.877855 8.090166 0.000000
vertex -2.628688 8.090115 5.257376
endloop
endfacet
facet normal -0.534576 0.777865 0.330386
outer loop
vertex -5.877855 8.090166 0.000000
vertex -7.236073 5.257253 4.472195
vertex -2.628688 8.090115 5.257376
endloop
endfacet
facet normal -0.904989 0.268031 0.330384
outer loop
vertex -9.510577 3.090126 0.000000
vertex -8.506477 0.000000 5.257358
vertex -7.236073 5.257253 4.472195
endloop
endfacet
facet normal -0.982246 0.000000 0.187599
outer loop
vertex -9.510577 3.090126 0.000000
vertex -9.510577 -3.090126 0.000000
vertex -8.506477 0.000000 5.257358
endloop
endfacet
facet normal -0.904989 -0.268031 0.330384
outer loop
vertex -9.510577 -3.090126 0.000000
vertex -7.236073 -5.257253 4.472195
vertex -8.506477 0.000000 5.257358
endloop
endfacet
facet normal -0.534576 -0.777865 0.330386
outer loop
vertex -5.877855 -8.090166 0.000000
vertex -2.628688 -8.090115 5.257376
vertex -7.236073 -5.257253 4.472195
endloop
endfacet
facet normal -0.303531 -0.934171 0.187597
outer loop
vertex -5.877855 -8.090166 0.000000
vertex 0.000000 -9.999999 0.000000
vertex -2.628688 -8.090115 5.257376
endloop
endfacet
facet normal -0.024747 -0.943521 0.330386
outer loop
vertex 0.000000 -9.999999 0.000000
vertex 2.763880 -8.506493 4.472198
vertex -2.628688 -8.090115 5.257376
endloop
endfacet
facet normal 0.574602 -0.748783 0.330387
outer loop
vertex 5.877855 -8.090166 0.000000
vertex 6.881892 -4.999969 5.257361
vertex 2.763880 -8.506493 4.472198
endloop
endfacet
facet normal 0.794655 -0.577348 0.187595
outer loop
vertex 5.877855 -8.090166 0.000000
vertex 9.510577 -3.090126 0.000000
vertex 6.881892 -4.999969 5.257361
endloop
endfacet
facet normal 0.889697 -0.315095 0.330385
outer loop
vertex 9.510577 -3.090126 0.000000
vertex 8.944261 0.000000 4.472156
vertex 6.881892 -4.999969 5.257361
endloop
endfacet
facet normal 0.306569 0.943521 0.125628
outer loop
vertex 5.877855 8.090166 0.000000
vertex 0.000000 9.999999 0.000000
vertex 2.763880 8.506493 4.472198
endloop
endfacet
facet normal 0.303531 0.934171 -0.187597
outer loop
vertex 5.877855 8.090166 0.000000
vertex 2.628688 8.090115 -5.257376
vertex 0.000000 9.999999 0.000000
endloop
endfacet
facet normal 0.024747 0.943521 -0.330386
outer loop
vertex 2.628688 8.090115 -5.257376
vertex -2.763880 8.506493 -4.472198
vertex 0.000000 9.999999 0.000000
endloop
endfacet
facet normal -0.802609 0.583126 0.125627
outer loop
vertex -5.877855 8.090166 0.000000
vertex -9.510577 3.090126 0.000000
vertex -7.236073 5.257253 4.472195
endloop
endfacet
facet normal -0.794655 0.577348 -0.187595
outer loop
vertex -5.877855 8.090166 0.000000
vertex -6.881892 4.999969 -5.257361
vertex -9.510577 3.090126 0.000000
endloop
endfacet
facet normal -0.889697 0.315095 -0.330385
outer loop
vertex -6.881892 4.999969 -5.257361
vertex -8.944261 0.000000 -4.472156
vertex -9.510577 3.090126 0.000000
endloop
endfacet
facet normal -0.802609 -0.583126 0.125627
outer loop
vertex -9.510577 -3.090126 0.000000
vertex -5.877855 -8.090166 0.000000
vertex -7.236073 -5.257253 4.472195
endloop
endfacet
facet normal -0.794655 -0.577348 -0.187595
outer loop
vertex -9.510577 -3.090126 0.000000
vertex -6.881892 -4.999969 -5.257361
vertex -5.877855 -8.090166 0.000000
endloop
endfacet
facet normal -0.574602 -0.748783 -0.330387
outer loop
vertex -6.881892 -4.999969 -5.257361
vertex -2.763880 -8.506493 -4.472198
vertex -5.877855 -8.090166 0.000000
endloop
endfacet
facet normal 0.306569 -0.943521 0.125628
outer loop
vertex 0.000000 -9.999999 0.000000
vertex 5.877855 -8.090166 0.000000
vertex 2.763880 -8.506493 4.472198
endloop
endfacet
facet normal 0.303531 -0.934171 -0.187597
outer loop
vertex 0.000000 -9.999999 0.000000
vertex 2.628688 -8.090115 -5.257376
vertex 5.877855 -8.090166 0.000000
endloop
endfacet
facet normal 0.534576 -0.777865 -0.330386
outer loop
vertex 2.628688 -8.090115 -5.257376
vertex 7.236073 -5.257253 -4.472195
vertex 5.877855 -8.090166 0.000000
endloop
endfacet
facet normal 0.992077 0.000000 0.125628
outer loop
vertex 9.510577 -3.090126 0.000000
vertex 9.510577 3.090126 0.000000
vertex 8.944261 0.000000 4.472156
endloop
endfacet
facet normal 0.982246 0.000000 -0.187599
outer loop
vertex 9.510577 -3.090126 0.000000
vertex 8.506477 0.000000 -5.257358
vertex 9.510577 3.090126 0.000000
endloop
endfacet
facet normal 0.904989 0.268032 -0.330385
outer loop
vertex 8.506477 0.000000 -5.257358
vertex 7.236073 5.257253 -4.472195
vertex 9.510577 3.090126 0.000000
endloop
endfacet
facet normal 0.471299 0.583122 -0.661699
outer loop
vertex 4.253226 3.090113 -8.506540
vertex 2.628688 8.090115 -5.257376
vertex 7.236073 5.257253 -4.472195
endloop
endfacet
facet normal 0.187595 0.577345 -0.794657
outer loop
vertex 4.253226 3.090113 -8.506540
vertex -1.624555 4.999952 -8.506543
vertex 2.628688 8.090115 -5.257376
endloop
endfacet
facet normal -0.038530 0.748779 -0.661699
outer loop
vertex -1.624555 4.999952 -8.506543
vertex -2.763880 8.506493 -4.472198
vertex 2.628688 8.090115 -5.257376
endloop
endfacet
facet normal -0.408946 0.628425 -0.661699
outer loop
vertex -1.624555 4.999952 -8.506543
vertex -6.881892 4.999969 -5.257361
vertex -2.763880 8.506493 -4.472198
endloop
endfacet
facet normal -0.491119 0.356821 -0.794657
outer loop
vertex -1.624555 4.999952 -8.506543
vertex -5.257297 0.000000 -8.506516
vertex -6.881892 4.999969 -5.257361
endloop
endfacet
facet normal -0.724042 0.194736 -0.661695
outer loop
vertex -5.257297 0.000000 -8.506516
vertex -8.944261 0.000000 -4.472156
vertex -6.881892 4.999969 -5.257361
endloop
endfacet
facet normal -0.724042 -0.194736 -0.661695
outer loop
vertex -5.257297 0.000000 -8.506516
vertex -6.881892 -4.999969 -5.257361
vertex -8.944261 0.000000 -4.472156
endloop
endfacet
facet normal -0.491119 -0.356821 -0.794657
outer loop
vertex -5.257297 0.000000 -8.506516
vertex -1.624555 -4.999952 -8.506543
vertex -6.881892 -4.999969 -5.257361
endloop
endfacet
facet normal -0.408946 -0.628425 -0.661699
outer loop
vertex -1.624555 -4.999952 -8.506543
vertex -2.763880 -8.506493 -4.472198
vertex -6.881892 -4.999969 -5.257361
endloop
endfacet
facet normal 0.700224 0.268031 -0.661699
outer loop
vertex 8.506477 0.000000 -5.257358
vertex 4.253226 3.090113 -8.506540
vertex 7.236073 5.257253 -4.472195
endloop
endfacet
facet normal 0.607060 0.000000 -0.794656
outer loop
vertex 8.506477 0.000000 -5.257358
vertex 4.253226 -3.090113 -8.506540
vertex 4.253226 3.090113 -8.506540
endloop
endfacet
facet normal 0.331304 0.000000 -0.943524
outer loop
vertex 4.253226 -3.090113 -8.506540
vertex 0.000000 0.000000 -9.999999
vertex 4.253226 3.090113 -8.506540
endloop
endfacet
facet normal -0.038530 -0.748779 -0.661699
outer loop
vertex -1.624555 -4.999952 -8.506543
vertex 2.628688 -8.090115 -5.257376
vertex -2.763880 -8.506493 -4.472198
endloop
endfacet
facet normal 0.187595 -0.577345 -0.794658
outer loop
vertex -1.624555 -4.999952 -8.506543
vertex 4.253226 -3.090113 -8.506540
vertex 2.628688 -8.090115 -5.257376
endloop
endfacet
facet normal 0.471299 -0.583122 -0.661699
outer loop
vertex 4.253226 -3.090113 -8.506540
vertex 7.236073 -5.257253 -4.472195
vertex 2.628688 -8.090115 -5.257376
endloop
endfacet
endsolid Exported from Blender-2.75 (sub 0)
